# xmcd
#
# Track frame offsets:
#	150
#	13226
#	29693
#	48358
#	72657
#	89138
#	106016
#	125950
#	145736
#	163360
#	186805
#
# Disc length: 2700 seconds
# Revision: 0
# Processed by: cddbd v1.5.2PL0 Copyright (c) Steve Scherf et al.
# Submitted via: dBpowerAMP V12.0
#
DISCID=aa0a8a0b
DTITLE=Scott Hopkins - Scott Hopkins
DYEAR=2013
DGENRE=Country
TTITLE0=Jumper Cables
TTITLE1=Nothing Left to Lose
TTITLE2=Home Sweet Home
TTITLE3=Sanchez Trace
TTITLE4=Long Red Boots
TTITLE5=Corky's Clogs
TTITLE6=Night Night, Allison
TTITLE7=Before I Knew
TTITLE8=Around the Hornpipe
TTITLE9=Invisible Strings
TTITLE10=Chenango County Blues
EXTD=
EXTT0=
EXTT1=
EXTT2=
EXTT3=
EXTT4=
EXTT5=
EXTT6=
EXTT7=
EXTT8=
EXTT9=
EXTT10=
PLAYORDER=
